<?xml version="1.0" encoding="utf-8"?>
<!-- Generator: Adobe Illustrator 25.3.1, SVG Export Plug-In . SVG Version: 6.00 Build 0)  -->
<svg version="1.1" id="Layer_1" xmlns="http://www.w3.org/2000/svg" xmlns:xlink="http://www.w3.org/1999/xlink" x="0px" y="0px"
	 viewBox="0 0 512 512" style="enable-background:new 0 0 512 512;" xml:space="preserve">
<style type="text/css">
	.st0{fill:#020202;}
	.st1{stroke:#FFFFFF;stroke-width:10;stroke-miterlimit:10;}
</style>
<path d="M-612,320v96h96v-96H-612z M-529,403h-70v-70h70V403z"/>
<path class="st0" d="M233.5,70.4c93.7-6.8,189.6,28.3,256.5,94.4c8.8,9,7.6,24.8-1.6,33.1c-8.5,10-25.5,10.2-34.3,0.4
	c-57.2-55.1-138-84.9-217.4-79c-65.9,4.2-129.7,32.6-177.6,78.1c-4.3,4.3-9.7,7.9-15.9,8.2c-15.7,1.8-30.2-14.5-26.8-29.9
	c1-5.5,4.5-10.1,8.5-13.7C81,108.4,156.2,75.5,233.5,70.4z"/>
<path class="st0" d="M231.2,162.3c71.8-7.8,146.4,18.7,197.2,70c7.9,9.1,7,23.9-1.9,32.1c-8,9.8-24.3,11-33.4,2
	c-32.5-32.1-76.5-52.4-122.1-55.8C215.6,206,159,227,119.6,266c-9.1,9.6-26,8.5-34.2-1.7c-8.8-8.3-9.6-23.6-1.1-32.4
	C123.4,192.8,176.2,167.9,231.2,162.3z"/>
<path class="st0" d="M241.8,253c45.3-4.5,92.2,12.9,123.7,45.7c8.6,9,7.6,24.5-1.5,32.8c-8.3,10-24.8,10.6-33.8,1.3
	c-17.8-18.2-42.4-29.8-67.9-31.2c-28.9-2.1-58.2,9.4-78.7,29.7c-5.1,5.7-12.6,9.2-20.2,8.3c-17.8-1.2-30.2-25.1-17.9-39.3
	C170.3,273.2,205.5,256.6,241.8,253z"/>
<path class="st0" d="M248.8,337.7c29.2-4.9,58.8,19.2,59.8,48.8c2.7,29-22.9,56.6-52.1,56c-26.2,0.9-50.5-20.8-52.8-46.9
	C200,368.2,221.4,340.8,248.8,337.7z"/>
<path class="st1" d="M430.3,435.1L430.3,435.1c-9.9,9.9-25.9,9.9-35.7,0L59.7,100.3c-9.9-9.9-9.9-25.9,0-35.7l0,0
	c9.9-9.9,25.9-9.9,35.7,0l334.8,334.8C440.1,409.2,440.1,425.2,430.3,435.1z"/>
</svg>
